<?xml version="1.0" standalone="no"?>
<!DOCTYPE svg PUBLIC "-//W3C//DTD SVG 20010904//EN"
 "http://www.w3.org/TR/2001/REC-SVG-20010904/DTD/svg10.dtd">
<svg version="1.0" xmlns="http://www.w3.org/2000/svg"
 width="512.000000pt" height="512.000000pt" viewBox="0 0 512.000000 512.000000"
 preserveAspectRatio="xMidYMid meet">
<metadata>
Created by potrace 1.14, written by Peter Selinger 2001-2017
</metadata>
<g transform="translate(0.000000,512.000000) scale(0.100000,-0.100000)"
fill="#000000" stroke="none">
<path d="M1296 4949 c-28 -11 -200 -109 -686 -392 -19 -11 -44 -25 -55 -31
-141 -77 -303 -177 -330 -205 -35 -35 -65 -109 -65 -160 0 -53 24 -109 110
-256 48 -82 99 -170 112 -195 14 -25 58 -101 98 -170 40 -68 82 -140 93 -160
73 -130 99 -156 144 -139 19 7 26 0 63 -63 24 -40 38 -73 33 -77 -16 -10 -34
-50 -31 -69 4 -23 205 -372 228 -396 20 -20 56 -27 82 -14 9 4 51 50 94 100
77 91 181 195 197 198 10 1 237 -387 237 -404 0 -6 -43 -54 -96 -106 -52 -52
-101 -106 -108 -120 -22 -42 -3 -79 82 -162 l78 -76 -27 -54 c-15 -30 -35 -77
-44 -106 l-17 -52 -110 0 c-121 0 -163 -13 -174 -55 -10 -39 9 -78 44 -94 31
-14 32 -16 32 -82 0 -66 -1 -67 -30 -78 -41 -14 -50 -44 -50 -162 0 -110 13
-152 52 -163 13 -3 70 -6 128 -6 l106 0 37 -92 c21 -51 40 -100 43 -108 3 -10
-22 -43 -70 -90 -86 -85 -100 -112 -81 -156 17 -37 351 -369 385 -382 38 -15
75 6 155 88 44 44 76 69 85 66 8 -3 56 -22 107 -42 l91 -38 4 -123 c2 -101 6
-125 21 -140 16 -16 44 -18 290 -21 344 -3 321 -15 325 161 l4 125 71 26 c40
15 87 35 105 45 l34 17 66 -69 c87 -91 115 -108 155 -96 38 11 372 338 392
383 19 44 5 71 -80 156 -41 41 -75 78 -75 82 0 5 11 30 24 56 13 26 31 71 40
100 l18 52 119 0 c105 0 121 2 139 20 11 11 22 30 25 42 3 13 5 139 3 280 -3
231 -5 259 -21 275 -15 15 -39 19 -142 21 l-124 4 -21 61 c-11 34 -31 81 -44
105 l-22 44 78 76 c42 42 82 88 87 102 19 57 -41 120 -94 99 -35 -13 -40 -10
-104 52 l-61 61 19 31 c80 131 161 285 161 304 0 13 -7 35 -16 48 -15 23 -14
28 21 90 l36 66 41 -32 c61 -49 203 -196 245 -255 21 -29 53 -60 71 -69 52
-26 76 -7 154 124 37 62 68 115 68 117 0 2 25 44 55 95 30 50 55 93 55 95 0 4
70 123 90 154 6 8 13 22 17 30 4 8 20 38 36 65 17 28 38 65 48 83 11 17 27 47
38 65 10 17 67 115 125 217 59 102 111 192 116 200 50 81 110 192 120 223 25
78 -1 178 -61 235 -19 17 -144 96 -279 173 -135 78 -258 150 -275 160 -16 10
-37 22 -45 26 -8 4 -107 61 -220 126 -205 120 -265 147 -325 147 -51 0 -120
-29 -157 -65 -26 -26 -208 -328 -314 -520 -6 -11 -39 -67 -72 -126 -65 -111
-71 -142 -35 -182 15 -16 15 -20 -3 -45 -11 -15 -28 -44 -39 -64 -15 -28 -24
-36 -37 -32 -33 10 -73 -6 -94 -39 -54 -83 -254 -439 -260 -461 -7 -31 17 -73
49 -85 13 -5 45 -11 72 -14 28 -3 61 -8 75 -11 89 -19 132 -30 187 -47 l62
-20 -17 -29 c-37 -63 -126 -217 -147 -255 -13 -22 -48 -82 -78 -133 l-54 -93
-5 51 c-9 88 1 85 -319 85 l-280 0 -19 -25 c-10 -14 -20 -45 -22 -69 l-3 -44
-15 29 c-8 16 -32 57 -52 92 -21 34 -38 64 -38 66 0 1 -40 72 -90 157 -49 85
-90 159 -90 165 0 7 10 14 23 17 12 3 67 16 122 30 55 14 120 28 145 31 90 12
105 17 128 42 12 14 22 33 22 43 0 21 -35 88 -127 246 -57 97 -241 417 -323
560 -10 17 -82 143 -162 280 -79 138 -159 276 -177 307 -35 62 -80 110 -126
134 -38 20 -142 27 -179 13z m124 -1289 c33 -35 32 -71 -2 -107 -41 -44 -126
-17 -129 40 -2 40 2 52 27 75 35 31 70 28 104 -8z m2384 8 c39 -35 41 -74 6
-109 -36 -36 -78 -38 -109 -5 -69 73 28 180 103 114z m-1154 -1919 c179 -81
193 -325 25 -423 -186 -109 -410 66 -348 273 41 137 194 208 323 150z"/>
</g>
</svg>
